<svg xmlns="http://www.w3.org/2000/svg" xmlns:xlink="http://www.w3.org/1999/xlink" viewBox="0 0 12954.35 9814.59"><defs><style>.cls-1{fill:none;}.cls-2{fill:#eec1a3;}.cls-3{fill:#c1d5ea;}.cls-4{fill:#e6a67b;}.cls-5{fill:#e47c98;}.cls-6{fill:#fae285;}.cls-7{fill:#efcee1;}.cls-8{fill:#b6d6d0;}.cls-9{fill:#b4b6d9;}.cls-10{fill:#c19ec8;}.cls-11{fill:#f1cb34;}.cls-12{fill:#f4d4cb;}.cls-13{fill:url(#New_Pattern_6);}</style><pattern id="New_Pattern_6" data-name="New Pattern 6" width="1200" height="1200" patternUnits="userSpaceOnUse" viewBox="0 0 1200 1200"><rect class="cls-1" width="1200" height="1200"/><path class="cls-2" d="M883.74,1165.43c-2.26-5.22-9.28-8.56-14.62-5.77-20.44,10.67-38.43,25.6-49.84,45.88-11.87,21.1-14.63,46.47-6.13,69.26,5,13.4,25.38,4.53,20.39-8.86-13.4-36,14.13-70.07,44.44-85.89C883.3,1177.27,886.25,1171.21,883.74,1165.43Z"/><path class="cls-3" d="M714.93,1152.1c18,3.82,32.57,17.35,35.45,35.71.87,5.49-4.36,10.54-9.5,10.89-5.85.4-10-4-10.89-9.5-1.27-8-9-14-16.3-16.35-10.38-3.39-21.7-.2-31.25,4.21-17.42,8.07-32.93,21.94-44.6,37.42,25.47,21.23,33.07,60.26,27,92.22-3.85,20.48-13.82,39.57-30,52.89-15.53,12.78-36.56,18.73-56.38,14.78-12.9-2.57-8.83-22.61,4.09-20,17.73,3.54,35.73-4.6,47.19-18.13,12.26-14.48,17.11-34.33,16.68-53-.38-17-4.76-35.09-16.53-48-1-1.11-2.09-2.18-3.21-3.21-7.3,13.35-13.89,27.5-26.83,36.15-13.3,8.9-34.31,9.77-45.88-2.56-15.3-16.29-5.11-41.13,9.68-53.73,15.36-13.09,36.34-15.29,54.9-8.49.58.21,1.14.45,1.71.68a151.36,151.36,0,0,1,39-37.17C675.34,1156.27,695.33,1148,714.93,1152.1Zm-109.55,76.42q1.86-3.49,3.8-6.91a34.19,34.19,0,0,0-18.73-1,33.61,33.61,0,0,0-17.82,11c-3.88,4.61-7.37,12-5.13,18.08.58,1.55,1.39,2.36,3.39,3.36a18.06,18.06,0,0,0,6,1.38,19.5,19.5,0,0,0,14.64-5.62C597.6,1243.18,601.52,1235.71,605.38,1228.52Z"/><path class="cls-4" d="M1378.21,537.26c-5,17.68-19.52,31.31-38,32.94-5.53.49-10.23-5.06-10.23-10.22,0-5.87,4.73-9.73,10.23-10.22,8.12-.71,14.52-8,17.41-15.15,4.09-10.13,1.68-21.64-2.07-31.46-6.87-17.94-19.66-34.35-34.31-47-22.9,24-62.36,28.89-93.84,20.72-20.17-5.23-38.54-16.48-50.73-33.55-11.69-16.37-16.2-37.76-10.91-57.26,3.44-12.7,23.15-7.27,19.71,5.44-4.73,17.46,2.16,36,14.89,48.32,13.61,13.22,33.09,19.4,51.73,20.24,17,.78,35.34-2.37,49-13.23q1.77-1.41,3.42-3c-12.82-8.19-26.49-15.72-34.24-29.22-8-13.88-7.42-34.89,5.67-45.6,17.29-14.16,41.38-2.31,52.95,13.31,12,16.21,12.78,37.29,4.74,55.35-.25.57-.53,1.1-.8,1.66a151.13,151.13,0,0,1,34.44,41.4C1376.75,497.47,1383.69,518,1378.21,537.26Zm-68.79-114.49c2.23,1.4,4.44,2.81,6.63,4.25a34.13,34.13,0,0,0,2.25-18.61,33.66,33.66,0,0,0-9.72-18.53c-4.34-4.17-11.52-8.17-17.69-6.34-1.59.47-2.45,1.22-3.59,3.16a18.44,18.44,0,0,0-1.78,5.86,19.5,19.5,0,0,0,4.62,15C1295.31,414,1302.51,418.43,1309.42,422.77Z"/><path class="cls-5" d="M277.92,396.68c-5,3.84-5.44,10.55-2.1,15.57a172.49,172.49,0,0,1,28.64,94.31,142.67,142.67,0,0,1-34.64,94.18c-15.48,18-34.64,32.47-54.23,45.69-11.87,8,1.64,25.66,13.47,17.68,36.21-24.43,70.48-54.64,86.51-96.4,13.58-35.39,13.91-74.46,4.3-110.85a194.36,194.36,0,0,0-26.38-58.08C290.17,393.78,282.48,393.2,277.92,396.68Z"/><path class="cls-6" d="M102.77,1305.5c4.14-4.79,3.16-11.45-1.13-15.67a172.49,172.49,0,0,1-47.36-86.45,142.63,142.63,0,0,1,14.62-99.27c11.46-20.8,27.25-38.88,43.72-55.84,10-10.26-6.87-24.77-16.81-14.54-30.44,31.33-57.79,67.92-64.92,112.08-6.05,37.42,1.63,75.73,18.49,109.38a194.68,194.68,0,0,0,37.71,51.45C91.38,1310.85,99,1309.84,102.77,1305.5Z"/><path class="cls-7" d="M574.21,352.58c-18.05,12-43.82,10.44-60.94-2.43-17.58-13.2-25.7-37.88-18.35-58.86a52.33,52.33,0,0,1,43-34.22,10,10,0,0,1,7.69-2.91c24.09.6,47.35,18,52,42.26A55.29,55.29,0,0,1,574.21,352.58Zm.28-56.39a32.65,32.65,0,0,0-22.33-18.91,10.17,10.17,0,0,1-6.54,1.75c-14.61-.69-28.9,9.42-30.92,24.45-1.73,12.88,4.86,26,16.54,31.8,11.15,5.5,25.85,4.17,35-4.54S579.28,308,574.49,296.19Z"/><path class="cls-6" d="M823.51,445.38a448.25,448.25,0,0,1-71.46,12.1c-8.4.7-21.43,3.66-29-1.54-6-4.17-7.88-13.1-9.34-19.81-10.35-47.57-15.87-96.73-19.85-145.2q-3.42-41.81-4.33-83.76c-.32-14.28-22.55-14.33-22.23,0A1429.65,1429.65,0,0,0,680.22,368.6c3.45,25.22,6.69,51,12.62,75.77,2.38,9.92,6.46,20.38,14.35,27.23,9.11,7.91,20.64,9.54,32.32,9a460.92,460.92,0,0,0,89.91-13.77C843.28,463.32,837.4,441.88,823.51,445.38Z"/><path class="cls-8" d="M650.42,463.41C629,450.48,606,437.7,580.81,434.17c-25.65-3.61-49.31,4.49-67.72,22.66-17.29,17.06-30.33,39.13-43,59.67a761.26,761.26,0,0,0-37.19,67.84,794.88,794.88,0,0,0-34.25,82.44c-2,5.66,2.29,12.16,7.78,13.66,6.14,1.68,11.67-2.1,13.66-7.78a750.06,750.06,0,0,1,60.4-130.32c11.58-19.77,23.65-39.84,37.78-57.9,12.8-16.35,28.79-29.34,50.5-29.09,25.47.3,49.29,14.51,70.45,27.27C651.5,490,662.66,470.8,650.42,463.41Z"/><path class="cls-9" d="M914.66,655.5a874.39,874.39,0,0,1-136.94-61.88c-7.61-4.27-8.34-14-1.38-19.28a315.24,315.24,0,0,1,39.78-25.79,13.48,13.48,0,0,1,5.94-5.11l27.71-12.57c7.6-3.45,15.24-7.58,23.37-9.69s16.49-2.32,24,1.61c9.35,4.89,13.94,14.6,17.89,23.85,13.55,31.75,18.36,66.58,15.33,100.87C929.68,655.37,920.74,657.64,914.66,655.5ZM887,542.51a11.58,11.58,0,0,1-3.6,1.81,299.1,299.1,0,0,0-80,38A873,873,0,0,0,909.18,630a187.35,187.35,0,0,0-12.48-69.49c-1.94-5.07-4.32-14.45-9.12-17.62C887.38,542.73,887.18,542.62,887,542.51Z"/><path class="cls-4" d="M683.57,721.72c-15.77,14.34-39.16,15.92-58,7.12-19.94-9.29-29.91-30.33-26.23-51.7,3.47-20.19,19.49-38.8,40-42.61a13.26,13.26,0,0,1,7.7.81c19.79-3.88,40.29,10.93,47.88,30.42C702.11,684.29,698.67,708,683.57,721.72Zm-9.63-48.82a28.64,28.64,0,0,0-9.39-12.29c-4.16-2.82-12.34-6.1-17-2.44-3.8,3-8.66,4.19-12.83,2.1a31.55,31.55,0,0,0-14.07,23.89,25.11,25.11,0,0,0,16.48,25.62C648.21,714,661,713,669.29,704.61,677.22,696.57,678,683.51,673.94,672.9Z"/><path class="cls-7" d="M1091.59,334.11c-10.76-38.14-33.77-73.72-69.42-92.69-19.59-10.43-42.1-15.78-64.27-13.07-5.95.73-11.11,4.59-11.11,11.12,0,5.43,5.12,11.84,11.11,11.11,34.4-4.22,67.69,12.88,88.36,40,22.53,29.59,30.74,67.43,31.45,104,.47,24.36-2,48.64-5.24,72.76-.79,6,5.67,11.11,11.12,11.11,6.65,0,10.32-5.14,11.11-11.11C1100.54,423.18,1103.84,377.53,1091.59,334.11Z"/><path class="cls-10" d="M979.74,404.58c-14.08,13.82-36.6,15-52.72,3.92a42.06,42.06,0,0,1-15.36-19.28,11.91,11.91,0,0,1-1.41-3.23c-5.87-21.52,6.53-45.22,27.78-52.28,18.13-6,39.29,3,49.17,18.86C997.37,368.94,993.22,391.35,979.74,404.58Zm-9-31.28c.06-11.44-11.78-20.35-22.54-19.19a18.1,18.1,0,0,0-12.33,7.06,12.54,12.54,0,0,1-3.08,9.23,7.69,7.69,0,0,0-1.72,4.24,19.4,19.4,0,0,0,.65,5.44,2.1,2.1,0,0,1,.06.24,18.26,18.26,0,0,0,2.82,5.4,22.57,22.57,0,0,0,15,8.15C961,395.08,970.65,384.71,970.7,373.3Z"/><path class="cls-4" d="M832.72,267c-14.84,3.17-30.49-4.47-39.63-16.12-10.18-13-12.77-31.05-10.44-47,2.78-18.94,13.17-36.7,11.68-56.29-1.32-17.54-10.28-34.22-27.79-39.88-13.64-4.4-19.49,17.05-5.91,21.43,14.22,4.6,12.19,25.47,9.23,36.83-5.13,19.64-11.91,37.87-9.59,58.59,2.14,19.09,10.12,37.69,25.22,50.08s34,17.89,53.14,13.81C852.61,285.47,846.7,264,832.72,267Z"/><path class="cls-8" d="M1232.7,632.1c-2.79-10.93-5.48-21.78-11.27-31.56a77,77,0,0,0-43.71-33.88c-18.45-5.57-38.38-4.86-55.54,4.19-9.91,5.22-18.75,12.53-29.28,16.53a52,52,0,0,1-23,3,59.6,59.6,0,0,1-46.28-28.7c-3.09-5.15-11.26-5.21-15.47-1.85-5.14,4.09-4.81,10.41-1.72,15.58,19.84,33.09,66.14,47,100.4,30.18,10.53-5.18,19.67-13,30.63-17.31a48.2,48.2,0,0,1,22.83-2.77c16.51,1.84,32.4,10.69,41.59,24.89,5.85,9,7.77,20,10.52,30.27,3.68,13.68,8.49,25.55,18.79,35.57,4.3,4.18,12.19,2.14,15.39-2.21,3.9-5.3,2-11.34-2.32-15.54C1237.36,651.79,1235,641,1232.7,632.1Z"/><path class="cls-11" d="M1073.43,868.72c-2.43-9.59-5.38-19.05-8.75-28.35a457.21,457.21,0,0,0-25-56c-10.47-20-22-39.48-33.55-58.91-7.3-12.28-26.52-1.12-19.19,11.22,18.62,31.32,37.61,62.87,51.39,96.69,7,17.12,13,35,16.4,53.19,1.58,8.58.71,16.05-4,23.47-4.55,7.23-10.62,13.59-16.41,19.85a326,326,0,0,1-46.22,41.38c-4.83,3.54-7.24,9.64-4,15.2,2.79,4.77,10.34,7.56,15.2,4a358.42,358.42,0,0,0,45.91-39.77c13.47-14,29.66-29.8,32.08-50C1078.59,890,1076,879.08,1073.43,868.72Z"/><path class="cls-7" d="M922.17,744.69A70.07,70.07,0,0,0,859.26,740c-17.72,7.36-30.72,22.43-41.42,37.81-10.36,14.88-19.12,31.4-32.18,44.18a67.06,67.06,0,0,1-43.89,19.2c-18.33.87-37.36-4.61-50.9-17.33-4.38-4.1-10.94-5.14-15.7-.9-4.17,3.72-5.29,11.57-.9,15.69,28.12,26.4,72,32.54,106.3,14.48,17.21-9.07,29.68-24.14,40.44-40,10.17-15,19.09-31.53,32.82-43.61,15.61-13.73,37.88-17.12,56.1-6.26C922.2,770.56,934.47,752,922.17,744.69Z"/><path class="cls-5" d="M1236.07,751c-1.51-5.48-8-9.77-13.67-7.76-21.74,7.69-41.65,19.94-55.8,38.42-14.72,19.22-21,43.94-15.8,67.7,3,14,24.49,8.06,21.43-5.9-8.21-37.49,23.84-67.38,56.07-78.79C1234,762.7,1237.74,757.11,1236.07,751Z"/><path class="cls-7" d="M121.47,211.54c-.73-5.64-6.55-10.79-12.46-9.59-22.59,4.59-44,14-60.6,30.28-17.25,17-26.92,40.6-25.07,64.85,1.09,14.26,23.13,11.39,22.05-2.87C42.47,256,78.37,230.8,111.88,224,117.76,222.8,122.28,217.79,121.47,211.54Z"/><path class="cls-2" d="M883.74-34.57c-2.26-5.22-9.28-8.56-14.62-5.77-20.44,10.67-38.43,25.6-49.84,45.88C807.41,26.64,804.65,52,813.15,74.8c5,13.4,25.38,4.53,20.39-8.86C820.14,30,847.67-4.13,878-19.95,883.3-22.73,886.25-28.79,883.74-34.57Z"/><path class="cls-11" d="M1187.93,909.65c-14.3,0-14.33,22.22,0,22.22S1202.25,909.65,1187.93,909.65Z"/><path class="cls-11" d="M567.58,897.3c-9,20.35-32.23,33.51-54.21,32.05-24.73-1.65-45.8-15.88-63.48-32.25-3.28-3-6.54-6.22-9.73-9.55-15,16-26.9,34.28-45,47.33-17.49,12.64-38.65,19.8-60.07,21.55-42.67,3.49-84.38-18.83-107.37-54.47C220,889.9,239.22,878.77,247,890.74c26.65,41.32,81.81,55.68,125.16,32.38,21.44-11.52,34.29-31.17,50.13-48.86,1.08-1.21,2.2-2.4,3.32-3.56C402.05,840.37,387,802.53,402.32,765c2.27-5.58,7.31-9.5,13.67-7.76,5.3,1.46,10,8.11,7.76,13.67-9.58,23.53-4.48,48.94,8.08,70.32A155.36,155.36,0,0,0,442,856.36a118.65,118.65,0,0,1,41.63-19.55c21.25-5.24,45.32-5.27,64.72,6.06C567.54,854.09,576.78,876.45,567.58,897.3Zm-23.78-30c-11.37-11.94-30.89-13.13-46.21-10.68a98.79,98.79,0,0,0-41.08,16.62,169.27,169.27,0,0,0,23.85,20.31c14.83,10.35,34.81,19.12,52.22,9.64C545.64,896.06,555.63,879.7,543.8,867.27Z"/><path class="cls-8" d="M333.23,63.44c-12.52-4.15-17.89,15.59-5.44,19.71,19.45,6.43,29.68,28.93,27,48.34-3.18,23.15-20.91,41.64-40.71,52.34-23.93,12.93-50.74,15.08-77.1,19.23-25.22,4-48.81,13.63-62.78,36.1-13.6,21.88-15.23,50-3.67,73,5.91,11.76,23.55,1.42,17.65-10.32-9-17.87-5.59-40.61,6.34-56.37,15.57-20.56,43.56-22.16,67.06-25.39,27.17-3.72,54.87-11,77.05-27.84,20.53-15.62,35.93-39,37-65.33C376.68,99.42,359.66,72.19,333.23,63.44Z"/><path class="cls-9" d="M1188.59,168.86a530.19,530.19,0,0,0-35.87-110.65c-2.25-5-9.58-6.23-14-3.66-5.19,3-5.93,8.92-3.67,14a505.56,505.56,0,0,1,31.81,96.4c1.54,6.92,4.48,15.25,3.46,22.44-.83,5.84-7.29,7.9-11.95,10.17q-23.21,11.25-47.19,20.72c-5.13,2-8.72,6.84-7.14,12.58,1.34,4.88,7.41,9.18,12.57,7.14,18.21-7.21,36.25-15,53.82-23.64,8.16-4,15.39-9.26,18.63-18.12S1190.4,177.78,1188.59,168.86Z"/><path class="cls-5" d="M991.59,171.15c-6.23,1.43-12.17-1.06-18.07-2.87l-74.18-22.71c-6.26-1.92-12.71-3.6-15.37-10.32s1.42-12.21,5.61-16.93q12.85-14.49,25.94-28.76Q941.35,61.37,968.05,34c3.63-3.72,8.79-5.4,13.41-2.57,5.23-1.09,11.36,1.32,12.56,8.1a659.66,659.66,0,0,1,9.35,82.44q.48,9.54.67,19.08c.1,5.32.73,11-.32,16.27C1002.4,163.9,998.4,169.58,991.59,171.15Zm-7.69-21c0-1.52,0-3.06-.06-4.57a642.68,642.68,0,0,0-7.94-90.5q-16.85,17.43-33.35,35.18-10.47,11.28-20.8,22.69-4.66,5.16-9.3,10.34l-3.54,4c.72.19,1.39.36,2,.54L924.54,132l26.35,8.07,26.35,8.07Z"/><path class="cls-4" d="M480.19,96.88c-13.15,0-13.17,20.44,0,20.44S493.36,96.88,480.19,96.88Z"/><path class="cls-9" d="M442.63,253.25c-16-27.18-57.5-27-84.28-21.9-5.42,1-8.51,7.55-7.13,12.57,1.56,5.68,7.13,8.18,12.57,7.14,13.06-2.5,27.2-2.87,40.21.19,8.11,1.91,18.54,5.69,22,14.13,2.16,5.34.84,11.34-.57,16.68-1.94,7.35-4.35,14.59-6.56,21.86q-6.84,22.47-13.69,44.93c-3.84,12.61,15.88,18,19.71,5.43q8-26.37,16.07-52.74C445.7,285.85,451.68,268.65,442.63,253.25Z"/><path class="cls-12" d="M904.05,968.77c-7.56,20.38-29.53,33.22-51,31.61s-39.1-16.61-45.59-37c-6.39-20.09.78-41.54,18.4-53.15a47.42,47.42,0,0,1,52.43-.08,14.34,14.34,0,0,1,2.09.72C901.64,919.87,911.94,947.49,904.05,968.77Zm-33.47-40a14.18,14.18,0,0,1-4.08-2.23c-9.22-7.18-25-4.31-33.59,4s-9.42,21.48-3.74,32.28c6.12,11.64,17.47,18.51,30.7,17.15,12.34-1.28,24.39-10.11,26.19-22.83A27.22,27.22,0,0,0,870.58,928.72Z"/><path class="cls-3" d="M535.07,731.44a10.11,10.11,0,0,0-2.63-4.51,10.61,10.61,0,0,0-7.22-3h-2.46a11.33,11.33,0,0,0-7.23,3,11.4,11.4,0,0,0-3,7.22l.36,2.72a10.2,10.2,0,0,0,2.63,4.51,10.6,10.6,0,0,0,7.23,3h2.46a11.4,11.4,0,0,0,7.22-3,11.33,11.33,0,0,0,3-7.23C535.31,733.25,535.19,732.34,535.07,731.44Z"/><path class="cls-3" d="M409.6,453.44a10.11,10.11,0,0,0-2.63-4.51,10.58,10.58,0,0,0-7.22-3h-2.46a10.5,10.5,0,0,0-10.22,10.22l.36,2.71a10.15,10.15,0,0,0,2.63,4.51,10.61,10.61,0,0,0,7.23,3h2.46a11.28,11.28,0,0,0,7.22-3,7.58,7.58,0,0,0,2.12-3.29,7.7,7.7,0,0,0,.88-3.93C409.85,455.25,409.72,454.35,409.6,453.44Z"/><path class="cls-10" d="M190.6,994.44a10.11,10.11,0,0,0-2.63-4.51,10.58,10.58,0,0,0-7.22-3h-2.46a9.85,9.85,0,0,0-9.34,6.28,7.63,7.63,0,0,0-.88,3.94l.36,2.71a10.15,10.15,0,0,0,2.63,4.51,10.61,10.61,0,0,0,7.23,3h2.46a11.28,11.28,0,0,0,7.22-3,7.58,7.58,0,0,0,2.12-3.29,7.7,7.7,0,0,0,.88-3.93C190.85,996.25,190.72,995.35,190.6,994.44Z"/><path class="cls-8" d="M950.34,1134.64c13.34,9.58,31.26,22.78,48.7,17.44,12-3.66,20.74-14.37,30.24-21.92a86.1,86.1,0,0,1,27.27-14.81c.57-3.37,1.18-6.69,1.82-9.93,4.15-21.14,10.35-42.85,20.71-61.84,9.91-18.15,24.12-34.3,43.86-41.82,18.14-6.91,38.21-6,54.59,4.8,4.64,3,5,10.28,1.75,14.35-3.6,4.61-9.73,4.78-14.35,1.76-12.6-8.28-30.22-5.54-42.54,1.92-17.11,10.37-26.87,29.14-33.59,47.31a236.24,236.24,0,0,0-10.87,39.95c12.72-.12,25.23,3.37,35.67,11.57,14.24,11.19,23.59,30.37,18.77,48.53-4.31,16.23-19.12,28.64-35.74,30.74-21.23,2.67-36.27-13.79-40.74-33.16-2.27-9.84-2.7-20.31-2.1-30.8-8.51,4.58-16,11-23.6,17.5-14.17,12.18-30.69,20.41-49.74,16.32-15.89-3.41-29.69-12.46-42.71-21.8C927,1143,939.7,1127,950.34,1134.64Zm157.88,12.54c-7.71-11-20.1-15.82-33.11-14.9a148.68,148.68,0,0,0-.79,20.55c.31,7.72,1.17,16.56,5.83,23,7,9.72,18.07,7.84,26.43.67a19.21,19.21,0,0,0,6.53-12.38C1113.71,1158.13,1111.64,1152.09,1108.22,1147.18Z"/><path class="cls-3" d="M714.93-47.9c18,3.82,32.57,17.35,35.45,35.71.87,5.49-4.36,10.54-9.5,10.89-5.85.4-10-4-10.89-9.5-1.27-8-9-13.95-16.3-16.35-10.38-3.39-21.7-.2-31.25,4.21C665-14.87,649.51-1,637.84,14.48c25.47,21.23,33.07,60.26,27,92.22-3.85,20.48-13.82,39.57-30,52.89-15.53,12.78-36.56,18.73-56.38,14.78-12.9-2.57-8.83-22.61,4.09-20,17.73,3.54,35.73-4.6,47.19-18.13,12.26-14.48,17.11-34.33,16.68-53-.38-17-4.76-35.09-16.53-48-1-1.11-2.09-2.18-3.21-3.21-7.3,13.35-13.89,27.5-26.83,36.15-13.3,8.9-34.31,9.77-45.88-2.56-15.3-16.29-5.11-41.13,9.68-53.73C579-1.23,600-3.43,618.57,3.37c.58.21,1.14.45,1.71.68a151.36,151.36,0,0,1,39-37.17C675.34-43.73,695.33-52,714.93-47.9ZM605.38,28.52q1.86-3.49,3.8-6.91a34.19,34.19,0,0,0-18.73-1,33.61,33.61,0,0,0-17.82,11c-3.88,4.61-7.37,12-5.13,18.08.58,1.55,1.39,2.36,3.39,3.36a18.06,18.06,0,0,0,6,1.38,19.5,19.5,0,0,0,14.64-5.62C597.6,43.18,601.52,35.71,605.38,28.52Z"/><path class="cls-4" d="M178.21,537.26c-5,17.68-19.52,31.31-38,32.94-5.54.49-10.23-5.06-10.23-10.22,0-5.87,4.73-9.73,10.23-10.22,8.12-.71,14.52-8,17.41-15.15,4.09-10.13,1.68-21.64-2.07-31.46-6.87-17.94-19.66-34.35-34.31-47-22.9,24-62.36,28.89-93.84,20.72C7.2,471.6-11.17,460.35-23.36,443.28-35,426.91-39.56,405.52-34.27,386c3.44-12.7,23.15-7.27,19.71,5.44-4.73,17.46,2.16,36,14.89,48.32C13.94,453,33.42,459.18,52.06,460c17,.78,35.34-2.37,49-13.23q1.77-1.41,3.42-3C91.67,435.61,78,428.08,70.25,414.58c-8-13.88-7.42-34.89,5.67-45.6,17.29-14.16,41.38-2.31,53,13.31,12,16.21,12.78,37.29,4.74,55.35-.25.57-.53,1.1-.8,1.66a151.13,151.13,0,0,1,34.44,41.4C176.75,497.47,183.69,518,178.21,537.26ZM109.42,422.77c2.23,1.4,4.44,2.81,6.63,4.25a34.13,34.13,0,0,0,2.25-18.61,33.66,33.66,0,0,0-9.72-18.53c-4.34-4.17-11.52-8.17-17.69-6.34-1.59.47-2.45,1.22-3.59,3.16a18.44,18.44,0,0,0-1.78,5.86,19.5,19.5,0,0,0,4.62,15C95.31,414,102.51,418.43,109.42,422.77Z"/><path class="cls-5" d="M347.1,1059.83c-1.51,18.7-16,35.53-34.42,39.64-19.48,4.36-39.75-5.77-49.7-22.76-10.42-17.78-8.61-41.26,6-56.13,13.83-14.08,37.25-17.31,52.38-3.71C337.29,1024.47,348.53,1042,347.1,1059.83Zm-40.67-26.44a9.14,9.14,0,0,1-6.24-5c-9.27-1.29-19.46,7.07-22.31,15.78-4.7,14.35,4.46,30.83,18.82,35,12.72,3.71,26.75-4.83,29.62-17.81S318.92,1035.88,306.43,1033.39Z"/><path class="cls-7" d="M434.72,1210.33a81.9,81.9,0,0,0-59.21-19.2c-19.86,1.51-37,11.73-54,21s-33.69,16.38-53.28,12.28c-18.61-3.89-36.24-15.88-48.57-30.13-13-15-22-34.16-20-54.4,1.32-13-18.91-16-20.24-2.9-4.3,42.62,25.58,81.25,62.33,99.52,20.62,10.25,43.56,12.61,65.37,4.91,18.61-6.56,34.49-18.91,52.91-25.92a61.11,61.11,0,0,1,62,10.8C432,1234.93,444.68,1218.88,434.72,1210.33Z"/><path class="cls-4" d="M506.63,1106.86c-4.45,7.41-15.56,10.9-23,14.31a339.6,339.6,0,0,1-46.8,17.45c-4.53,7.63-19.08,5.87-19.11-5.22,0-21.47,3.1-43.4,10.22-63.7,5.05-14.41,17.22-31.43,34.89-25.77,8.4,2.69,14.22,9.63,19.84,16,6.09,6.93,11.85,14.14,17.37,21.53S512.23,1097.54,506.63,1106.86Zm-21.45-9.09c.43-.22.91-.53,1.41-.85-1.95-3-4.77-5.89-6.55-8.2-3.79-4.89-7.75-9.65-11.83-14.3-2.91-3.31-6.8-9.46-11.17-10.94-1.52-.52-3.15.8-4.58,2.53-6.46,7.81-8.44,20.08-10.51,29.67a166.26,166.26,0,0,0-3.1,21q11.22-3.53,22.16-7.87c5.31-2.12,10.54-4.43,15.71-6.87Q481,1099.92,485.18,1097.77Z"/><path class="cls-3" d="M58.93,910.9c1.09-8.57,9.85-16.25,15.29-22.37A338.36,338.36,0,0,1,110,853.69c1.07-8.81,15.09-13.07,19.59-2.93,8.7,19.62,14.66,41,16.34,62.41,1.18,15.23-3.08,35.71-21.54,37.66-8.77.92-16.9-3.09-24.62-6.68-8.37-3.89-16.55-8.17-24.58-12.7S57.57,921.7,58.93,910.9Zm23.3-.33c-.3.37-.62.85-1,1.35,3,1.94,6.74,3.46,9.31,4.86,5.43,3,11,5.71,16.58,8.31,4,1.86,10,5.92,14.64,5.51,1.6-.14,2.55-2,3.17-4.16,2.76-9.75-.38-21.77-2.35-31.39A166.76,166.76,0,0,0,117,874.59q-8.85,7.75-17.11,16.14c-4,4.08-7.86,8.3-11.61,12.62C86.24,905.73,84.21,908.13,82.23,910.57Z"/><path class="cls-7" d="M285.4,776.82l-54.71,33.09C222,815.14,213,821.18,202,818.14c-8.93-2.45-13.89-9.9-16.88-17.28s-5.06-15.23-8.15-22.69a197.11,197.11,0,0,0-11.41-23.09,220.53,220.53,0,0,0-30.71-41.32c-4-4.24-4.68-10.28,0-14.46,4.11-3.67,12.2-4.22,16.19,0,23,24.32,40.59,52.18,51.51,82.5,2,5.45,4.36,11.47,6.28,16.51a18,18,0,0,1,3-1.64c4-2.34,8-4.81,12-7.22l50.08-30.28C286.09,751.77,297.54,769.49,285.4,776.82Zm-76,21.95a1.69,1.69,0,0,1-.39-.06C209.85,800.72,210,798.81,209.38,798.77Z"/><path class="cls-10" d="M804.25,1079.93Q743.5,1058.22,684.49,1032c-18-8-36.74-15.62-53.7-25.78-11.29-6.77-24.16-16.45-25.95-30.48-1.36-10.71,4.16-21.27,8.55-30.66q8.08-17.29,16.19-34.6c2.33-5,1.4-11-3.67-14-4.43-2.59-11.64-1.35-14,3.67Q604.25,916.6,596.59,933c-4.82,10.33-10,20.72-11.68,32.11-2.88,19.82,6.77,37.18,22,49.33,15.55,12.44,34.1,20.19,52.07,28.41q32.49,14.84,65.56,28.36,36.82,15.07,74.32,28.46c5.19,1.85,11.18-2.1,12.57-7.14C812.94,1086.84,809.47,1081.8,804.25,1079.93Z"/><path class="cls-8" d="M32.7,632.1c-2.79-10.93-5.48-21.78-11.27-31.56a77,77,0,0,0-43.71-33.88c-18.45-5.57-38.38-4.86-55.54,4.19-9.91,5.22-18.75,12.53-29.28,16.53a52,52,0,0,1-23,3,59.6,59.6,0,0,1-46.28-28.7c-3.09-5.15-11.26-5.21-15.47-1.85-5.14,4.09-4.81,10.41-1.72,15.58,19.84,33.09,66.14,47,100.4,30.18,10.53-5.18,19.67-13,30.63-17.31a48.2,48.2,0,0,1,22.83-2.77c16.51,1.84,32.4,10.69,41.59,24.89,5.85,9,7.77,20,10.52,30.27,3.68,13.68,8.49,25.55,18.79,35.57,4.3,4.18,12.19,2.14,15.39-2.21,3.9-5.3,2-11.34-2.32-15.54C37.36,651.79,35,641,32.7,632.1Z"/><path class="cls-5" d="M36.07,751c-1.51-5.48-8-9.77-13.67-7.76C.66,751-19.25,763.21-33.4,781.69c-14.72,19.22-21,43.94-15.8,67.7,3.05,14,24.49,8.06,21.43-5.9C-36,806-3.93,776.11,28.3,764.7,34,762.7,37.74,757.11,36.07,751Z"/><path class="cls-6" d="M102.77,105.5c4.14-4.79,3.16-11.45-1.13-15.67A172.49,172.49,0,0,1,54.28,3.38,142.63,142.63,0,0,1,68.9-95.89c11.46-20.8,27.25-38.88,43.72-55.84,10-10.26-6.87-24.77-16.81-14.54C65.37-134.94,38-98.35,30.89-54.19,24.84-16.77,32.52,21.54,49.38,55.19a194.68,194.68,0,0,0,37.71,51.45C91.38,110.85,99,109.84,102.77,105.5Z"/><path class="cls-8" d="M950.34-65.36c13.34,9.58,31.26,22.78,48.7,17.44,12-3.66,20.74-14.37,30.24-21.92a86.1,86.1,0,0,1,27.27-14.81c.57-3.37,1.18-6.69,1.82-9.93,4.15-21.14,10.35-42.85,20.71-61.84,9.91-18.15,24.12-34.3,43.86-41.82,18.14-6.91,38.21-5.95,54.59,4.8,4.64,3,5,10.28,1.75,14.35-3.6,4.61-9.73,4.78-14.35,1.76-12.6-8.28-30.22-5.55-42.54,1.92-17.11,10.37-26.87,29.14-33.59,47.31a236.24,236.24,0,0,0-10.87,39.95c12.72-.12,25.23,3.37,35.67,11.57,14.24,11.19,23.59,30.37,18.77,48.53-4.31,16.23-19.12,28.64-35.74,30.74-21.23,2.67-36.27-13.79-40.74-33.16-2.27-9.84-2.7-20.31-2.1-30.8-8.51,4.58-16,11-23.6,17.5C1016-31.59,999.5-23.36,980.45-27.45c-15.89-3.41-29.69-12.46-42.71-21.8C927-57,939.7-73,950.34-65.36Zm157.88,12.54c-7.71-11-20.1-15.82-33.11-14.9a148.68,148.68,0,0,0-.79,20.55c.31,7.72,1.17,16.56,5.83,23,7,9.72,18.07,7.84,26.43.67a19.21,19.21,0,0,0,6.53-12.38C1113.71-41.87,1111.64-47.91,1108.22-52.82Z"/><path class="cls-7" d="M434.72,10.33a81.9,81.9,0,0,0-59.21-19.2c-19.86,1.5-37,11.73-54,21S287.79,28.56,268.2,24.46C249.59,20.57,232,8.58,219.63-5.67c-13-15-22-34.16-20-54.4,1.32-13.05-18.91-16-20.24-2.9-4.3,42.62,25.58,81.25,62.33,99.52,20.62,10.25,43.56,12.61,65.37,4.91C325.74,34.9,341.62,22.55,360,15.54a61.11,61.11,0,0,1,62,10.8C432,34.93,444.68,18.88,434.72,10.33Z"/></pattern></defs><title>Asset 1</title><g id="Layer_2" data-name="Layer 2"><g id="Graphic_Elements" data-name="Graphic Elements"><polygon class="cls-13" points="0 9814.59 0 0 12954.35 0 12954.35 9814.59 0 9814.59"/></g></g></svg>