<svg xmlns="http://www.w3.org/2000/svg" width="96.22" height="63.506" viewBox="0 0 96.22 63.506">
  <g id="logo" transform="translate(-29.968 -159.492)">
    <path id="Path_4" data-name="Path 4" d="M51.512,278.58c-1.88-4.929-3.907-9.685-5.786-14.777-.991-2.685-2.029-4.3-4.611-5.511a8.6,8.6,0,0,0-8.223.885,8,8,0,0,0-2.834,7.379c.161,1.559,5.816,15.391,7.021,18.478l2.9,7.374c.878,2.394,3.542,9.458,4.632,10.76a7.932,7.932,0,0,0,7.365,2.758c2.625-.258,5.125-2.351,6.453-3.8,4.59-5.008,5.584-13.947,5.957-14.6.488.321,2.353,5.52,2.6,6.131.913,2.237,1.626,4.189,2.5,6.353.96,2.363,1.638,3.678,3.742,4.933a8.2,8.2,0,0,0,6.451.74,7.483,7.483,0,0,0,5.06-4.76c1-2.876.071-5.178-.8-7.41-1.418-3.638-2.842-7.211-4.261-10.768-1.907-4.782-3.8-9.536-5.658-14.386-.807-2.11-1.6-4.38-2.461-6.26-3.229-7.044-14.585-5.441-15.019,2.6-.28,5.193,3.445,6.995,3.445,14.7a40.2,40.2,0,0,1-2.154,12.955l-.445.814c-.552-.422-2.55-6.187-2.983-7.228-1.02-2.448-1.963-4.9-2.9-7.36Z" transform="translate(0 -83.046)" fill="#fec30e" fill-rule="evenodd"/>
    <path id="Path_5" data-name="Path 5" d="M341.459,308.7h15.807q10.736,0,14.016-4.194a15.029,15.029,0,0,0,3.274-9.524q0-8.908-9.26-11.148a10.243,10.243,0,0,0,5.962-3.979,11.038,11.038,0,0,0,2.007-6.452,12.615,12.615,0,0,0-3.465-8.711q-3.477-3.818-11.041-3.812H346.326c2.208,3.107,2.327,6.175,2.452,10.252h5.775q4.947,0,4.947,3.979a4.288,4.288,0,0,1-1.063,2.76,4.455,4.455,0,0,1-3.633,1.291h-8.166a18.455,18.455,0,0,1-5.18,6.574,11.688,11.688,0,0,1-6.979,2.529V308.7h6.979Zm13.7-10.611h-7.2v-8.746h6.715c2.163,0,3.656.466,4.469,1.4a4.5,4.5,0,0,1,1.219,3.047,4.2,4.2,0,0,1-1.254,2.975,5.2,5.2,0,0,1-3.943,1.326Z" transform="translate(-248.369 -85.702)" fill="#0c311c" fill-rule="evenodd"/>
    <path id="Subtraction_1" data-name="Subtraction 1" d="M885.528,1203.644h0a7.843,7.843,0,0,0-3.087-.888,11.644,11.644,0,0,0-2.053.28l-.217.041a8.49,8.49,0,0,1-2.895-4.453,9.909,9.909,0,0,1,.027-5c.894-3.483,3.363-6.167,6.141-6.679a.961.961,0,0,1,.751-.452.779.779,0,0,1,.74.732.589.589,0,0,1-.16.45,1.18,1.18,0,0,1-.875.281l-.092,0H883.8a7.022,7.022,0,0,0-3.916,2.155,8.448,8.448,0,0,0-2.476,6.13c.976-4.072,4.365-4.68,6.3-4.68,3.44,0,6.789,1.763,7.374,3.28-.04,4.852-1.438,5.556-2.918,6.3a4.876,4.876,0,0,0-2.635,2.5Zm-3.578-6.978a2.192,2.192,0,1,0,2.191,2.192A2.195,2.195,0,0,0,881.95,1196.666Z" transform="translate(-797.344 -1020.976)" fill="#0c311c"/>
    <path id="Path_13" data-name="Path 13" d="M385.509,191.326c6.021-11.417,17.74-9.188,13.364-4.037-1.527,1.8-4.036,2.654-5.636,3.666,5.83-1.182,12.467-8.125,5.743-9.623,2.416-2.327.3-6.807-3.761-5.276-4.614,1.738-9.83,10.512-9.71,15.271Z" transform="translate(-289.993 -16.252)" fill="#0c311c" fill-rule="evenodd"/>
    <path id="Path_14" data-name="Path 14" d="M343.7,341.382c-1.851.859-2.761-.423-3.6-1.607-.6-.852-1.235-2.465-2.449-2.876,1.021,4.658-2.675,9.965-4.453,11.7.184.375,1.86.409,3.691-.5a17.18,17.18,0,0,0,6.807-6.718Z" transform="translate(-247.331 -147.709)" fill="#0c311c" fill-rule="evenodd"/>
    <path id="Path_15" data-name="Path 15" d="M349.334,270.731a4.128,4.128,0,0,1,3.527-1.99c2.224-.341,6.6-.282,5.56-4.273a8.355,8.355,0,0,0-2.54-4.168c-.087,1.811-.609,6.032-2.738,6.75-2.1.709-4.592.582-3.81,3.68Z" transform="translate(-260.366 -85.227)" fill="#0c311c" fill-rule="evenodd"/>
    <path id="Path_16" data-name="Path 16" d="M353.5,309.838a4.776,4.776,0,0,1,4.906-.619c.972.443,2.8,1.625,3.951,1.6a21.3,21.3,0,0,0,.311-4.125c-.8,1.228-2.551.938-4.315.95-1.956.013-3.94.337-4.854,2.189Z" transform="translate(-263.888 -123.075)" fill="#0c311c" fill-rule="evenodd"/>
    <path id="Path_17" data-name="Path 17" d="M355.953,326.382c4.084.074,4.71,5.972,7.106,4.027a18.682,18.682,0,0,0,.9-2.53,12.7,12.7,0,0,1-4.294-1.94c-1.129-.675-3.267-.842-3.707.442Z" transform="translate(-265.885 -138.348)" fill="#0c311c" fill-rule="evenodd"/>
    <path id="Path_24" data-name="Path 24" d="M320.139,271.036a1.216,1.216,0,1,1-.923,1.18A1.075,1.075,0,0,1,320.139,271.036Z" transform="translate(-235.918 -93.984)" fill="#0c311c" fill-rule="evenodd"/>
  </g>
</svg>
